<mxfile host="app.diagrams.net" agent="Mozilla/5.0 (Windows NT 10.0; Win64; x64) AppleWebKit/537.36 (KHTML, like Gecko) Chrome/138.0.0.0 Safari/537.36" version="28.1.0">
  <diagram name="第 1 页" id="K0QVXA1uP9a3zzOhr4j9">
    <mxGraphModel dx="1665" dy="743" grid="1" gridSize="10" guides="1" tooltips="1" connect="1" arrows="1" fold="1" page="1" pageScale="1" pageWidth="827" pageHeight="1169" math="0" shadow="0">
      <root>
        <mxCell id="0" />
        <mxCell id="1" parent="0" />
        <mxCell id="1FmvIOwoU0BXYCsflgVM-1" value="&lt;b&gt;&lt;font style=&quot;font-size: 13px;&quot;&gt;混淆引擎&lt;/font&gt;&lt;/b&gt;" style="rounded=1;whiteSpace=wrap;html=1;align=left;verticalAlign=top;" vertex="1" parent="1">
          <mxGeometry x="170" y="100" width="250" height="105" as="geometry" />
        </mxCell>
        <mxCell id="1FmvIOwoU0BXYCsflgVM-2" value="关键路径分析器" style="rounded=0;whiteSpace=wrap;html=1;fillColor=light-dark(#ffe699, #ededed);dashed=1;strokeColor=light-dark(#f09044, #ededed);" vertex="1" parent="1">
          <mxGeometry x="328.69" y="165" width="70" height="30" as="geometry" />
        </mxCell>
        <mxCell id="1FmvIOwoU0BXYCsflgVM-3" value="&lt;div style=&quot;text-align: left;&quot;&gt;&lt;span style=&quot;background-color: transparent; color: light-dark(rgb(0, 0, 0), rgb(255, 255, 255));&quot;&gt;混淆代理生成器&lt;/span&gt;&lt;/div&gt;" style="rounded=0;whiteSpace=wrap;html=1;fillColor=light-dark(#f0cbad, #ededed);strokeColor=light-dark(#ed7e35, #ededed);dashed=1;" vertex="1" parent="1">
          <mxGeometry x="198.69" y="165" width="120" height="30" as="geometry" />
        </mxCell>
        <mxCell id="1FmvIOwoU0BXYCsflgVM-4" value="&lt;div style=&quot;text-align: left;&quot;&gt;&lt;span style=&quot;background-color: transparent; color: light-dark(rgb(0, 0, 0), rgb(255, 255, 255));&quot;&gt;混淆策略生成器&lt;/span&gt;&lt;/div&gt;" style="rounded=0;whiteSpace=wrap;html=1;fillColor=#d5e8d4;strokeColor=#82b366;dashed=1;" vertex="1" parent="1">
          <mxGeometry x="198.69" y="125" width="201.31" height="30" as="geometry" />
        </mxCell>
        <mxCell id="1FmvIOwoU0BXYCsflgVM-5" value="" style="endArrow=classic;html=1;rounded=0;strokeColor=light-dark(#ffc000, #ededed);endSize=3;" edge="1" parent="1">
          <mxGeometry width="50" height="50" relative="1" as="geometry">
            <mxPoint x="364" y="165" as="sourcePoint" />
            <mxPoint x="364" y="155" as="targetPoint" />
            <Array as="points" />
          </mxGeometry>
        </mxCell>
        <mxCell id="1FmvIOwoU0BXYCsflgVM-6" value="" style="curved=1;endArrow=classic;html=1;rounded=0;exitX=0.33;exitY=0.962;exitDx=0;exitDy=0;strokeColor=light-dark(#82b366, #000000);exitPerimeter=0;endSize=3;" edge="1" parent="1" source="1FmvIOwoU0BXYCsflgVM-4">
          <mxGeometry width="50" height="50" relative="1" as="geometry">
            <mxPoint x="48.69" y="225" as="sourcePoint" />
            <mxPoint x="265" y="165" as="targetPoint" />
            <Array as="points" />
          </mxGeometry>
        </mxCell>
        <mxCell id="1FmvIOwoU0BXYCsflgVM-7" value="" style="endArrow=classic;startArrow=classic;html=1;rounded=0;entryX=0;entryY=0.5;entryDx=0;entryDy=0;exitX=1;exitY=0.5;exitDx=0;exitDy=0;strokeColor=light-dark(#9673a6, #EDEDED);" edge="1" parent="1" source="1FmvIOwoU0BXYCsflgVM-1" target="1FmvIOwoU0BXYCsflgVM-70">
          <mxGeometry width="50" height="50" relative="1" as="geometry">
            <mxPoint x="380" y="275" as="sourcePoint" />
            <mxPoint x="430" y="225" as="targetPoint" />
          </mxGeometry>
        </mxCell>
        <mxCell id="1FmvIOwoU0BXYCsflgVM-8" value="&lt;b&gt;&lt;font style=&quot;font-size: 13px;&quot;&gt;&amp;nbsp; &amp;nbsp;数据层&lt;/font&gt;&lt;/b&gt;" style="rounded=1;whiteSpace=wrap;html=1;align=left;verticalAlign=top;" vertex="1" parent="1">
          <mxGeometry x="170" y="220" width="320" height="175" as="geometry" />
        </mxCell>
        <mxCell id="1FmvIOwoU0BXYCsflgVM-9" value="" style="endArrow=classic;html=1;rounded=0;exitX=0.5;exitY=1;exitDx=0;exitDy=0;entryX=0.277;entryY=0.01;entryDx=0;entryDy=0;strokeColor=light-dark(#ed7e35, #ededed);entryPerimeter=0;endSize=3;" edge="1" parent="1" source="1FmvIOwoU0BXYCsflgVM-3" target="1FmvIOwoU0BXYCsflgVM-8">
          <mxGeometry width="50" height="50" relative="1" as="geometry">
            <mxPoint x="90" y="245" as="sourcePoint" />
            <mxPoint x="140" y="195" as="targetPoint" />
          </mxGeometry>
        </mxCell>
        <mxCell id="1FmvIOwoU0BXYCsflgVM-10" value="" style="group" vertex="1" connectable="0" parent="1">
          <mxGeometry x="200" y="245" width="60" height="50" as="geometry" />
        </mxCell>
        <mxCell id="1FmvIOwoU0BXYCsflgVM-11" value="" style="rounded=0;whiteSpace=wrap;html=1;align=center;verticalAlign=top;container=0;" vertex="1" parent="1FmvIOwoU0BXYCsflgVM-10">
          <mxGeometry x="5.690000000000055" y="10" width="50" height="40" as="geometry" />
        </mxCell>
        <mxCell id="1FmvIOwoU0BXYCsflgVM-12" value="&lt;font style=&quot;font-size: 8px;&quot;&gt;&lt;b&gt;服务&lt;/b&gt;&lt;/font&gt;" style="text;html=1;align=center;verticalAlign=middle;whiteSpace=wrap;rounded=0;" vertex="1" parent="1FmvIOwoU0BXYCsflgVM-10">
          <mxGeometry width="60" height="30" as="geometry" />
        </mxCell>
        <mxCell id="1FmvIOwoU0BXYCsflgVM-13" value="" style="rounded=1;whiteSpace=wrap;html=1;fillColor=light-dark(#b4c7e7, #ededed);container=0;" vertex="1" parent="1FmvIOwoU0BXYCsflgVM-10">
          <mxGeometry x="7.690000000000055" y="20.5" width="46" height="12" as="geometry" />
        </mxCell>
        <mxCell id="1FmvIOwoU0BXYCsflgVM-14" value="" style="rounded=1;whiteSpace=wrap;html=1;fillColor=#D0CFCF;container=0;" vertex="1" parent="1FmvIOwoU0BXYCsflgVM-10">
          <mxGeometry x="7.690000000000055" y="33.99599999999998" width="20" height="12" as="geometry" />
        </mxCell>
        <mxCell id="1FmvIOwoU0BXYCsflgVM-15" value="" style="rounded=1;whiteSpace=wrap;html=1;fillColor=#D0CFCF;container=0;" vertex="1" parent="1FmvIOwoU0BXYCsflgVM-10">
          <mxGeometry x="33.690000000000055" y="33.99599999999998" width="20" height="12" as="geometry" />
        </mxCell>
        <mxCell id="1FmvIOwoU0BXYCsflgVM-16" value="" style="group" vertex="1" connectable="0" parent="1">
          <mxGeometry x="290" y="215" width="60" height="50" as="geometry" />
        </mxCell>
        <mxCell id="1FmvIOwoU0BXYCsflgVM-17" value="" style="rounded=0;whiteSpace=wrap;html=1;align=center;verticalAlign=top;container=0;" vertex="1" parent="1FmvIOwoU0BXYCsflgVM-16">
          <mxGeometry x="5.690000000000055" y="10" width="50" height="40" as="geometry" />
        </mxCell>
        <mxCell id="1FmvIOwoU0BXYCsflgVM-18" value="&lt;font style=&quot;font-size: 8px;&quot;&gt;&lt;b&gt;服务&lt;/b&gt;&lt;/font&gt;" style="text;html=1;align=center;verticalAlign=middle;whiteSpace=wrap;rounded=0;" vertex="1" parent="1FmvIOwoU0BXYCsflgVM-16">
          <mxGeometry width="60" height="30" as="geometry" />
        </mxCell>
        <mxCell id="1FmvIOwoU0BXYCsflgVM-19" value="" style="rounded=1;whiteSpace=wrap;html=1;fillColor=light-dark(#b4c7e7, #ededed);container=0;" vertex="1" parent="1FmvIOwoU0BXYCsflgVM-16">
          <mxGeometry x="7.690000000000055" y="20.5" width="46" height="12" as="geometry" />
        </mxCell>
        <mxCell id="1FmvIOwoU0BXYCsflgVM-20" value="" style="rounded=1;whiteSpace=wrap;html=1;fillColor=#D0CFCF;container=0;" vertex="1" parent="1FmvIOwoU0BXYCsflgVM-16">
          <mxGeometry x="7.690000000000055" y="33.99599999999998" width="20" height="12" as="geometry" />
        </mxCell>
        <mxCell id="1FmvIOwoU0BXYCsflgVM-21" value="" style="rounded=1;whiteSpace=wrap;html=1;fillColor=#D0CFCF;container=0;" vertex="1" parent="1FmvIOwoU0BXYCsflgVM-16">
          <mxGeometry x="33.690000000000055" y="33.99599999999998" width="20" height="12" as="geometry" />
        </mxCell>
        <mxCell id="1FmvIOwoU0BXYCsflgVM-22" value="" style="group" vertex="1" connectable="0" parent="1">
          <mxGeometry x="330" y="265" width="60" height="50" as="geometry" />
        </mxCell>
        <mxCell id="1FmvIOwoU0BXYCsflgVM-23" value="" style="rounded=0;whiteSpace=wrap;html=1;align=center;verticalAlign=top;container=0;" vertex="1" parent="1FmvIOwoU0BXYCsflgVM-22">
          <mxGeometry x="5.690000000000055" y="10" width="50" height="40" as="geometry" />
        </mxCell>
        <mxCell id="1FmvIOwoU0BXYCsflgVM-24" value="&lt;font style=&quot;font-size: 8px;&quot;&gt;&lt;b&gt;服务&lt;/b&gt;&lt;/font&gt;" style="text;html=1;align=center;verticalAlign=middle;whiteSpace=wrap;rounded=0;" vertex="1" parent="1FmvIOwoU0BXYCsflgVM-22">
          <mxGeometry width="60" height="30" as="geometry" />
        </mxCell>
        <mxCell id="1FmvIOwoU0BXYCsflgVM-25" value="" style="rounded=1;whiteSpace=wrap;html=1;fillColor=light-dark(#b4c7e7, #ededed);container=0;" vertex="1" parent="1FmvIOwoU0BXYCsflgVM-22">
          <mxGeometry x="7.690000000000055" y="20.5" width="46" height="12" as="geometry" />
        </mxCell>
        <mxCell id="1FmvIOwoU0BXYCsflgVM-26" value="" style="rounded=1;whiteSpace=wrap;html=1;fillColor=#D0CFCF;container=0;" vertex="1" parent="1FmvIOwoU0BXYCsflgVM-22">
          <mxGeometry x="7.690000000000055" y="33.99599999999998" width="20" height="12" as="geometry" />
        </mxCell>
        <mxCell id="1FmvIOwoU0BXYCsflgVM-27" value="" style="rounded=1;whiteSpace=wrap;html=1;fillColor=#D0CFCF;container=0;" vertex="1" parent="1FmvIOwoU0BXYCsflgVM-22">
          <mxGeometry x="33.690000000000055" y="33.99599999999998" width="20" height="12" as="geometry" />
        </mxCell>
        <mxCell id="1FmvIOwoU0BXYCsflgVM-28" value="" style="group" vertex="1" connectable="0" parent="1">
          <mxGeometry x="420" y="235" width="60" height="50" as="geometry" />
        </mxCell>
        <mxCell id="1FmvIOwoU0BXYCsflgVM-29" value="" style="rounded=0;whiteSpace=wrap;html=1;align=center;verticalAlign=top;container=0;" vertex="1" parent="1FmvIOwoU0BXYCsflgVM-28">
          <mxGeometry x="5.690000000000055" y="10" width="50" height="40" as="geometry" />
        </mxCell>
        <mxCell id="1FmvIOwoU0BXYCsflgVM-30" value="&lt;font style=&quot;font-size: 8px;&quot;&gt;&lt;b&gt;服务&lt;/b&gt;&lt;/font&gt;" style="text;html=1;align=center;verticalAlign=middle;whiteSpace=wrap;rounded=0;" vertex="1" parent="1FmvIOwoU0BXYCsflgVM-28">
          <mxGeometry width="60" height="30" as="geometry" />
        </mxCell>
        <mxCell id="1FmvIOwoU0BXYCsflgVM-31" value="" style="rounded=1;whiteSpace=wrap;html=1;fillColor=light-dark(#b4c7e7, #ededed);container=0;" vertex="1" parent="1FmvIOwoU0BXYCsflgVM-28">
          <mxGeometry x="7.690000000000055" y="20.5" width="46" height="12" as="geometry" />
        </mxCell>
        <mxCell id="1FmvIOwoU0BXYCsflgVM-32" value="" style="rounded=1;whiteSpace=wrap;html=1;fillColor=#D0CFCF;container=0;" vertex="1" parent="1FmvIOwoU0BXYCsflgVM-28">
          <mxGeometry x="7.690000000000055" y="33.99599999999998" width="20" height="12" as="geometry" />
        </mxCell>
        <mxCell id="1FmvIOwoU0BXYCsflgVM-33" value="" style="rounded=1;whiteSpace=wrap;html=1;fillColor=#D0CFCF;container=0;" vertex="1" parent="1FmvIOwoU0BXYCsflgVM-28">
          <mxGeometry x="33.690000000000055" y="33.99599999999998" width="20" height="12" as="geometry" />
        </mxCell>
        <mxCell id="1FmvIOwoU0BXYCsflgVM-34" value="" style="endArrow=classic;html=1;rounded=0;exitX=1;exitY=0.5;exitDx=0;exitDy=0;entryX=0;entryY=0.5;entryDx=0;entryDy=0;" edge="1" parent="1" source="1FmvIOwoU0BXYCsflgVM-11" target="1FmvIOwoU0BXYCsflgVM-17">
          <mxGeometry width="50" height="50" relative="1" as="geometry">
            <mxPoint x="-60" y="325" as="sourcePoint" />
            <mxPoint x="-10" y="275" as="targetPoint" />
          </mxGeometry>
        </mxCell>
        <mxCell id="1FmvIOwoU0BXYCsflgVM-35" value="" style="endArrow=classic;html=1;rounded=0;exitX=1;exitY=0.5;exitDx=0;exitDy=0;entryX=0;entryY=0.5;entryDx=0;entryDy=0;" edge="1" parent="1" source="1FmvIOwoU0BXYCsflgVM-11" target="1FmvIOwoU0BXYCsflgVM-23">
          <mxGeometry width="50" height="50" relative="1" as="geometry">
            <mxPoint x="368.69000000000005" y="279" as="sourcePoint" />
            <mxPoint x="418.69000000000005" y="229" as="targetPoint" />
          </mxGeometry>
        </mxCell>
        <mxCell id="1FmvIOwoU0BXYCsflgVM-36" value="" style="endArrow=classic;html=1;rounded=0;exitX=1;exitY=0.5;exitDx=0;exitDy=0;entryX=0;entryY=0.5;entryDx=0;entryDy=0;" edge="1" parent="1" source="1FmvIOwoU0BXYCsflgVM-17" target="1FmvIOwoU0BXYCsflgVM-29">
          <mxGeometry width="50" height="50" relative="1" as="geometry">
            <mxPoint x="363.69000000000005" y="279" as="sourcePoint" />
            <mxPoint x="413.69000000000005" y="229" as="targetPoint" />
          </mxGeometry>
        </mxCell>
        <mxCell id="1FmvIOwoU0BXYCsflgVM-37" value="" style="group" vertex="1" connectable="0" parent="1">
          <mxGeometry x="250" y="325" width="60" height="62" as="geometry" />
        </mxCell>
        <mxCell id="1FmvIOwoU0BXYCsflgVM-38" value="" style="rounded=0;whiteSpace=wrap;html=1;align=center;verticalAlign=top;container=0;" vertex="1" parent="1FmvIOwoU0BXYCsflgVM-37">
          <mxGeometry x="5.690000000000055" y="10" width="50" height="52" as="geometry" />
        </mxCell>
        <mxCell id="1FmvIOwoU0BXYCsflgVM-39" value="" style="rounded=1;whiteSpace=wrap;html=1;fillColor=light-dark(#b4c7e7, #ededed);container=0;" vertex="1" parent="1FmvIOwoU0BXYCsflgVM-37">
          <mxGeometry x="7.690000000000055" y="32" width="46" height="12" as="geometry" />
        </mxCell>
        <mxCell id="1FmvIOwoU0BXYCsflgVM-40" value="" style="rounded=1;whiteSpace=wrap;html=1;fillColor=#D0CFCF;container=0;" vertex="1" parent="1FmvIOwoU0BXYCsflgVM-37">
          <mxGeometry x="7.690000000000055" y="45.49599999999998" width="20" height="12" as="geometry" />
        </mxCell>
        <mxCell id="1FmvIOwoU0BXYCsflgVM-41" value="" style="rounded=1;whiteSpace=wrap;html=1;fillColor=#D0CFCF;container=0;" vertex="1" parent="1FmvIOwoU0BXYCsflgVM-37">
          <mxGeometry x="33.690000000000055" y="45.49599999999998" width="20" height="12" as="geometry" />
        </mxCell>
        <mxCell id="1FmvIOwoU0BXYCsflgVM-42" value="&lt;b style=&quot;font-size: 8px; line-height: 0px;&quot;&gt;&amp;nbsp;混淆代理&amp;nbsp;&lt;/b&gt;" style="text;html=1;align=center;verticalAlign=middle;whiteSpace=wrap;rounded=0;" vertex="1" parent="1FmvIOwoU0BXYCsflgVM-37">
          <mxGeometry width="60" height="32" as="geometry" />
        </mxCell>
        <mxCell id="1FmvIOwoU0BXYCsflgVM-44" value="" style="group" vertex="1" connectable="0" parent="1">
          <mxGeometry x="330" y="325" width="60" height="62" as="geometry" />
        </mxCell>
        <mxCell id="1FmvIOwoU0BXYCsflgVM-45" value="" style="rounded=0;whiteSpace=wrap;html=1;align=center;verticalAlign=top;container=0;" vertex="1" parent="1FmvIOwoU0BXYCsflgVM-44">
          <mxGeometry x="5.690000000000055" y="10" width="50" height="52" as="geometry" />
        </mxCell>
        <mxCell id="1FmvIOwoU0BXYCsflgVM-46" value="" style="rounded=1;whiteSpace=wrap;html=1;fillColor=light-dark(#b4c7e7, #ededed);container=0;" vertex="1" parent="1FmvIOwoU0BXYCsflgVM-44">
          <mxGeometry x="7.690000000000055" y="32" width="46" height="12" as="geometry" />
        </mxCell>
        <mxCell id="1FmvIOwoU0BXYCsflgVM-47" value="" style="rounded=1;whiteSpace=wrap;html=1;fillColor=#D0CFCF;container=0;" vertex="1" parent="1FmvIOwoU0BXYCsflgVM-44">
          <mxGeometry x="7.690000000000055" y="45.49599999999998" width="20" height="12" as="geometry" />
        </mxCell>
        <mxCell id="1FmvIOwoU0BXYCsflgVM-48" value="" style="rounded=1;whiteSpace=wrap;html=1;fillColor=#D0CFCF;container=0;" vertex="1" parent="1FmvIOwoU0BXYCsflgVM-44">
          <mxGeometry x="33.690000000000055" y="45.49599999999998" width="20" height="12" as="geometry" />
        </mxCell>
        <mxCell id="1FmvIOwoU0BXYCsflgVM-49" value="&lt;b style=&quot;font-size: 8px; line-height: 0px;&quot;&gt;混淆代理&lt;/b&gt;" style="text;html=1;align=center;verticalAlign=middle;whiteSpace=wrap;rounded=0;" vertex="1" parent="1FmvIOwoU0BXYCsflgVM-44">
          <mxGeometry width="60" height="32" as="geometry" />
        </mxCell>
        <mxCell id="1FmvIOwoU0BXYCsflgVM-51" value="" style="group" vertex="1" connectable="0" parent="1">
          <mxGeometry x="410" y="325" width="60" height="62" as="geometry" />
        </mxCell>
        <mxCell id="1FmvIOwoU0BXYCsflgVM-52" value="" style="rounded=0;whiteSpace=wrap;html=1;align=center;verticalAlign=top;container=0;" vertex="1" parent="1FmvIOwoU0BXYCsflgVM-51">
          <mxGeometry x="5.690000000000055" y="10" width="50" height="52" as="geometry" />
        </mxCell>
        <mxCell id="1FmvIOwoU0BXYCsflgVM-53" value="" style="rounded=1;whiteSpace=wrap;html=1;fillColor=light-dark(#b4c7e7, #ededed);container=0;" vertex="1" parent="1FmvIOwoU0BXYCsflgVM-51">
          <mxGeometry x="7.690000000000055" y="32" width="46" height="12" as="geometry" />
        </mxCell>
        <mxCell id="1FmvIOwoU0BXYCsflgVM-54" value="" style="rounded=1;whiteSpace=wrap;html=1;fillColor=#D0CFCF;container=0;" vertex="1" parent="1FmvIOwoU0BXYCsflgVM-51">
          <mxGeometry x="7.690000000000055" y="45.49599999999998" width="20" height="12" as="geometry" />
        </mxCell>
        <mxCell id="1FmvIOwoU0BXYCsflgVM-55" value="" style="rounded=1;whiteSpace=wrap;html=1;fillColor=#D0CFCF;container=0;" vertex="1" parent="1FmvIOwoU0BXYCsflgVM-51">
          <mxGeometry x="33.690000000000055" y="45.49599999999998" width="20" height="12" as="geometry" />
        </mxCell>
        <mxCell id="1FmvIOwoU0BXYCsflgVM-56" value="&lt;b style=&quot;font-size: 8px; line-height: 0px;&quot;&gt;混淆代理&lt;/b&gt;" style="text;html=1;align=center;verticalAlign=middle;whiteSpace=wrap;rounded=0;" vertex="1" parent="1FmvIOwoU0BXYCsflgVM-51">
          <mxGeometry width="60" height="32" as="geometry" />
        </mxCell>
        <mxCell id="1FmvIOwoU0BXYCsflgVM-58" value="" style="endArrow=classic;html=1;rounded=0;exitX=0.5;exitY=1;exitDx=0;exitDy=0;entryX=0;entryY=0.5;entryDx=0;entryDy=0;dashed=1;" edge="1" parent="1" source="1FmvIOwoU0BXYCsflgVM-11" target="1FmvIOwoU0BXYCsflgVM-38">
          <mxGeometry width="50" height="50" relative="1" as="geometry">
            <mxPoint x="110" y="475" as="sourcePoint" />
            <mxPoint x="160" y="425" as="targetPoint" />
          </mxGeometry>
        </mxCell>
        <mxCell id="1FmvIOwoU0BXYCsflgVM-59" value="" style="endArrow=classic;html=1;rounded=0;exitX=1;exitY=0.5;exitDx=0;exitDy=0;entryX=0;entryY=0.5;entryDx=0;entryDy=0;dashed=1;" edge="1" parent="1" source="1FmvIOwoU0BXYCsflgVM-38" target="1FmvIOwoU0BXYCsflgVM-45">
          <mxGeometry width="50" height="50" relative="1" as="geometry">
            <mxPoint x="110" y="455" as="sourcePoint" />
            <mxPoint x="160" y="405" as="targetPoint" />
          </mxGeometry>
        </mxCell>
        <mxCell id="1FmvIOwoU0BXYCsflgVM-60" value="" style="endArrow=classic;html=1;rounded=0;exitX=1;exitY=0.5;exitDx=0;exitDy=0;entryX=0;entryY=0.5;entryDx=0;entryDy=0;dashed=1;" edge="1" parent="1" source="1FmvIOwoU0BXYCsflgVM-45" target="1FmvIOwoU0BXYCsflgVM-52">
          <mxGeometry width="50" height="50" relative="1" as="geometry">
            <mxPoint x="100" y="465" as="sourcePoint" />
            <mxPoint x="150" y="415" as="targetPoint" />
          </mxGeometry>
        </mxCell>
        <mxCell id="1FmvIOwoU0BXYCsflgVM-61" value="" style="endArrow=classic;html=1;rounded=0;exitX=1;exitY=0.5;exitDx=0;exitDy=0;entryX=0.5;entryY=1;entryDx=0;entryDy=0;dashed=1;" edge="1" parent="1" source="1FmvIOwoU0BXYCsflgVM-45" target="1FmvIOwoU0BXYCsflgVM-29">
          <mxGeometry width="50" height="50" relative="1" as="geometry">
            <mxPoint x="140" y="465" as="sourcePoint" />
            <mxPoint x="190" y="415" as="targetPoint" />
          </mxGeometry>
        </mxCell>
        <mxCell id="1FmvIOwoU0BXYCsflgVM-62" value="&lt;span style=&quot;color: rgba(0, 0, 0, 0.9); font-family: -apple-system, BlinkMacSystemFont, &amp;quot;Segoe UI&amp;quot;, system-ui, -apple-system, &amp;quot;Segoe UI&amp;quot;, Roboto, Ubuntu, Cantarell, &amp;quot;Noto Sans&amp;quot;, sans-serif, Arial, &amp;quot;PingFang SC&amp;quot;, &amp;quot;Source Han Sans SC&amp;quot;, &amp;quot;Microsoft YaHei UI&amp;quot;, &amp;quot;Microsoft YaHei&amp;quot;, &amp;quot;Noto Sans CJK SC&amp;quot;, sans-serif; text-align: start; white-space-collapse: preserve; background-color: rgb(255, 255, 255);&quot;&gt;&lt;font style=&quot;font-size: 10px;&quot;&gt;&lt;b&gt;边车过滤器&lt;/b&gt;&lt;/font&gt;&lt;/span&gt;" style="text;html=1;align=center;verticalAlign=middle;whiteSpace=wrap;rounded=0;container=0;" vertex="1" parent="1">
          <mxGeometry x="519" y="307.19" width="61" height="24" as="geometry" />
        </mxCell>
        <mxCell id="1FmvIOwoU0BXYCsflgVM-63" value="" style="endArrow=classic;html=1;rounded=0;dashed=1;jumpSize=10;strokeWidth=0.5;sourcePerimeterSpacing=10;" edge="1" parent="1">
          <mxGeometry width="50" height="50" relative="1" as="geometry">
            <mxPoint x="498.5" y="379" as="sourcePoint" />
            <mxPoint x="514.5" y="379" as="targetPoint" />
          </mxGeometry>
        </mxCell>
        <mxCell id="1FmvIOwoU0BXYCsflgVM-64" value="&lt;span style=&quot;color: rgba(0, 0, 0, 0.9); font-family: -apple-system, BlinkMacSystemFont, &amp;quot;Segoe UI&amp;quot;, system-ui, -apple-system, &amp;quot;Segoe UI&amp;quot;, Roboto, Ubuntu, Cantarell, &amp;quot;Noto Sans&amp;quot;, sans-serif, Arial, &amp;quot;PingFang SC&amp;quot;, &amp;quot;Source Han Sans SC&amp;quot;, &amp;quot;Microsoft YaHei UI&amp;quot;, &amp;quot;Microsoft YaHei&amp;quot;, &amp;quot;Noto Sans CJK SC&amp;quot;, sans-serif; text-align: start; white-space-collapse: preserve; background-color: rgb(255, 255, 255);&quot;&gt;&lt;font style=&quot;font-size: 10px;&quot;&gt;&lt;b style=&quot;&quot;&gt;虚拟流量&lt;/b&gt;&lt;/font&gt;&lt;/span&gt;" style="text;html=1;align=center;verticalAlign=middle;whiteSpace=wrap;rounded=0;container=0;" vertex="1" parent="1">
          <mxGeometry x="518" y="365" width="69" height="24" as="geometry" />
        </mxCell>
        <mxCell id="1FmvIOwoU0BXYCsflgVM-65" value="" style="endArrow=classic;html=1;rounded=0;jumpSize=10;strokeWidth=0.5;" edge="1" parent="1">
          <mxGeometry width="50" height="50" relative="1" as="geometry">
            <mxPoint x="498.5" y="359" as="sourcePoint" />
            <mxPoint x="514.5" y="359" as="targetPoint" />
          </mxGeometry>
        </mxCell>
        <mxCell id="1FmvIOwoU0BXYCsflgVM-66" value="&lt;span style=&quot;color: rgba(0, 0, 0, 0.9); font-family: -apple-system, BlinkMacSystemFont, &amp;quot;Segoe UI&amp;quot;, system-ui, -apple-system, &amp;quot;Segoe UI&amp;quot;, Roboto, Ubuntu, Cantarell, &amp;quot;Noto Sans&amp;quot;, sans-serif, Arial, &amp;quot;PingFang SC&amp;quot;, &amp;quot;Source Han Sans SC&amp;quot;, &amp;quot;Microsoft YaHei UI&amp;quot;, &amp;quot;Microsoft YaHei&amp;quot;, &amp;quot;Noto Sans CJK SC&amp;quot;, sans-serif; text-align: start; white-space-collapse: preserve; background-color: rgb(255, 255, 255);&quot;&gt;&lt;font style=&quot;font-size: 10px;&quot;&gt;&lt;b&gt;真实流量&lt;/b&gt;&lt;/font&gt;&lt;/span&gt;" style="text;html=1;align=center;verticalAlign=middle;whiteSpace=wrap;rounded=0;container=0;" vertex="1" parent="1">
          <mxGeometry x="515" y="345" width="69" height="24" as="geometry" />
        </mxCell>
        <mxCell id="1FmvIOwoU0BXYCsflgVM-67" value="" style="rounded=1;whiteSpace=wrap;html=1;fillColor=light-dark(#b4c7e7, #ededed);container=0;" vertex="1" parent="1">
          <mxGeometry x="494.5" y="313" width="17" height="12" as="geometry" />
        </mxCell>
        <mxCell id="1FmvIOwoU0BXYCsflgVM-68" value="" style="rounded=1;whiteSpace=wrap;html=1;fillColor=light-dark(#d0cfcf, #ededed);container=0;" vertex="1" parent="1">
          <mxGeometry x="494.5" y="333" width="17" height="12" as="geometry" />
        </mxCell>
        <mxCell id="1FmvIOwoU0BXYCsflgVM-69" value="&lt;span style=&quot;color: rgba(0, 0, 0, 0.9); font-family: -apple-system, BlinkMacSystemFont, &amp;quot;Segoe UI&amp;quot;, system-ui, -apple-system, &amp;quot;Segoe UI&amp;quot;, Roboto, Ubuntu, Cantarell, &amp;quot;Noto Sans&amp;quot;, sans-serif, Arial, &amp;quot;PingFang SC&amp;quot;, &amp;quot;Source Han Sans SC&amp;quot;, &amp;quot;Microsoft YaHei UI&amp;quot;, &amp;quot;Microsoft YaHei&amp;quot;, &amp;quot;Noto Sans CJK SC&amp;quot;, sans-serif; text-align: start; white-space-collapse: preserve; background-color: rgb(255, 255, 255);&quot;&gt;&lt;font style=&quot;font-size: 10px;&quot;&gt;&lt;b&gt;Pod&lt;/b&gt;&lt;/font&gt;&lt;/span&gt;" style="text;html=1;align=center;verticalAlign=middle;whiteSpace=wrap;rounded=0;container=0;" vertex="1" parent="1">
          <mxGeometry x="519" y="327.19" width="54" height="24" as="geometry" />
        </mxCell>
        <mxCell id="1FmvIOwoU0BXYCsflgVM-70" value="&lt;span style=&quot;font-size: 13px;&quot;&gt;&lt;b&gt;控制层&lt;/b&gt;&lt;/span&gt;" style="rounded=1;whiteSpace=wrap;html=1;align=left;verticalAlign=top;" vertex="1" parent="1">
          <mxGeometry x="460" y="100" width="127" height="105" as="geometry" />
        </mxCell>
        <mxCell id="1FmvIOwoU0BXYCsflgVM-71" style="edgeStyle=orthogonalEdgeStyle;rounded=0;orthogonalLoop=1;jettySize=auto;html=1;exitX=0;exitY=0.5;exitDx=0;exitDy=0;entryX=1;entryY=0.5;entryDx=0;entryDy=0;fillColor=#fff2cc;strokeColor=light-dark(#ffc000, #6d5100);endSize=3;" edge="1" parent="1" source="1FmvIOwoU0BXYCsflgVM-72" target="1FmvIOwoU0BXYCsflgVM-2">
          <mxGeometry relative="1" as="geometry" />
        </mxCell>
        <mxCell id="1FmvIOwoU0BXYCsflgVM-72" value="kiali" style="rounded=0;whiteSpace=wrap;html=1;dashed=1;fillColor=#e1d5e7;strokeColor=#9673a6;" vertex="1" parent="1">
          <mxGeometry x="475.5" y="167.5" width="96" height="25" as="geometry" />
        </mxCell>
        <mxCell id="1FmvIOwoU0BXYCsflgVM-73" value="apiserver" style="rounded=0;whiteSpace=wrap;html=1;dashed=1;fillColor=#e1d5e7;strokeColor=#9673a6;" vertex="1" parent="1">
          <mxGeometry x="475.5" y="130" width="96" height="25" as="geometry" />
        </mxCell>
      </root>
    </mxGraphModel>
  </diagram>
</mxfile>
